<svg width="20" height="27" viewBox="0 0 20 27" fill="none" xmlns="http://www.w3.org/2000/svg">
<path d="M11.6615 1.16493C11.2083 -0.353844 8.85417 -0.4224 8.33854 1.16493C5.68229 9.4813 0 11.7437 0 17.6078C0 22.797 4.47396 27 10 27C15.526 27 20 22.797 20 17.6078C20 11.7173 14.3281 9.52349 11.6615 1.16493ZM5 15.1873C5 14.2539 5.74479 13.4997 6.66667 13.4997C7.58854 13.4997 8.33333 14.2539 8.33333 15.1873C8.33333 16.1207 7.58854 16.8748 6.66667 16.8748C5.74479 16.8748 5 16.1207 5 15.1873ZM7.57812 22.1378C7.43229 22.3224 7.17188 22.3487 6.99479 22.2011L6.34375 21.6737C6.16667 21.5261 6.13542 21.2624 6.28125 21.0831L12.4271 13.3046C12.5729 13.1253 12.8333 13.0937 13.0104 13.2413L13.6615 13.7687C13.8438 13.9164 13.8698 14.18 13.724 14.3593L7.57812 22.1378ZM13.3333 21.9374C12.4115 21.9374 11.6667 21.1833 11.6667 20.2499C11.6667 19.3165 12.4115 18.5623 13.3333 18.5623C14.2552 18.5623 15 19.3165 15 20.2499C15 21.1833 14.2552 21.9374 13.3333 21.9374Z" fill="black"/>
</svg>
