<svg width="77" height="124" viewBox="0 0 77 124" fill="none" xmlns="http://www.w3.org/2000/svg">
<path d="M10.9141 120V108.625H14.4297C15.6172 108.625 16.5182 108.891 17.1328 109.422C17.7526 109.948 18.0625 110.721 18.0625 111.742C18.0625 112.32 17.9349 112.818 17.6797 113.234C17.4245 113.651 17.0755 113.956 16.6328 114.148C17.1432 114.294 17.5365 114.589 17.8125 115.031C18.0885 115.469 18.2266 116.01 18.2266 116.656C18.2266 117.76 17.9219 118.594 17.3125 119.156C16.7083 119.719 15.8307 120 14.6797 120H10.9141ZM13.2109 115.055V118.094H14.6797C15.0911 118.094 15.4036 117.966 15.6172 117.711C15.8307 117.456 15.9375 117.094 15.9375 116.625C15.9375 115.604 15.5677 115.081 14.8281 115.055H13.2109ZM13.2109 113.383H14.4062C15.3073 113.383 15.7578 112.917 15.7578 111.984C15.7578 111.469 15.6536 111.099 15.4453 110.875C15.237 110.651 14.8984 110.539 14.4297 110.539H13.2109V113.383ZM25.3281 117.672H22.1953L21.5859 120H19.1562L22.7109 108.625H24.8125L28.3906 120H25.9375L25.3281 117.672ZM22.6953 115.758H24.8203L23.7578 111.703L22.6953 115.758ZM31.7188 113.734L33.4297 108.625H35.9297L32.8828 115.875V120H30.5547V115.875L27.5 108.625H30L31.7188 113.734ZM40.1797 115.609L39.2734 116.75V120H36.9766V108.625H39.2734V113.586L40 112.359L42.1172 108.625H44.9297L41.6719 113.625L44.9844 120H42.2578L40.1797 115.609ZM53.2344 108.625V116.5C53.224 117.682 52.8984 118.589 52.2578 119.219C51.6172 119.844 50.6979 120.156 49.5 120.156C48.2812 120.156 47.349 119.839 46.7031 119.203C46.0625 118.568 45.7422 117.648 45.7422 116.445V108.625H48.0547V116.453C48.0547 117.099 48.1589 117.56 48.3672 117.836C48.5755 118.112 48.9531 118.25 49.5 118.25C50.0469 118.25 50.4219 118.115 50.625 117.844C50.8281 117.568 50.9323 117.117 50.9375 116.492V108.625H53.2344ZM59.7812 117.016C59.7812 116.552 59.6615 116.203 59.4219 115.969C59.1875 115.729 58.7578 115.482 58.1328 115.227C56.9922 114.794 56.1719 114.289 55.6719 113.711C55.1719 113.128 54.9219 112.44 54.9219 111.648C54.9219 110.69 55.2604 109.922 55.9375 109.344C56.6198 108.76 57.4844 108.469 58.5312 108.469C59.2292 108.469 59.8516 108.617 60.3984 108.914C60.9453 109.206 61.3646 109.62 61.6562 110.156C61.9531 110.693 62.1016 111.302 62.1016 111.984H59.8125C59.8125 111.453 59.6979 111.049 59.4688 110.773C59.2448 110.492 58.9193 110.352 58.4922 110.352C58.0911 110.352 57.7786 110.471 57.5547 110.711C57.3307 110.945 57.2188 111.263 57.2188 111.664C57.2188 111.977 57.3438 112.26 57.5938 112.516C57.8438 112.766 58.2865 113.026 58.9219 113.297C60.0312 113.698 60.8359 114.19 61.3359 114.773C61.8411 115.357 62.0938 116.099 62.0938 117C62.0938 117.99 61.7786 118.763 61.1484 119.32C60.5182 119.878 59.6615 120.156 58.5781 120.156C57.8438 120.156 57.1745 120.005 56.5703 119.703C55.9661 119.401 55.4922 118.969 55.1484 118.406C54.8099 117.844 54.6406 117.18 54.6406 116.414H56.9453C56.9453 117.07 57.0729 117.547 57.3281 117.844C57.5833 118.141 58 118.289 58.5781 118.289C59.3802 118.289 59.7812 117.865 59.7812 117.016ZM59.3594 119.945L59.2891 120.398C59.5911 120.466 59.8229 120.615 59.9844 120.844C60.151 121.078 60.2344 121.38 60.2344 121.75C60.2344 122.323 60.0286 122.776 59.6172 123.109C59.2057 123.443 58.6172 123.609 57.8516 123.609L57.8047 122.305C58.1849 122.305 58.375 122.091 58.375 121.664C58.375 121.456 58.3073 121.31 58.1719 121.227C58.0417 121.143 57.8177 121.089 57.5 121.062L57.7109 119.945H59.3594Z" fill="#4A138C"/>
<path d="M73.6238 87.2492H68.0378C73.0267 78.8556 76.0408 68.3283 76.0408 56.8318C76.0408 43.8842 72.2405 32.1321 66.072 23.3069L64.5355 2.334C64.462 1.39256 63.8766 0.5688 63.0067 0.199896C62.1379 -0.168808 61.1336 -0.0202017 60.4053 0.585668L49.6733 9.53897C46.1437 8.08966 42.3936 7.30587 38.5006 7.30587C34.6087 7.30587 30.8548 8.08966 27.324 9.53897L16.5896 0.585869C15.8653 -0.0200009 14.8634 -0.168607 13.9947 0.200096C13.1259 0.569 12.5327 1.39276 12.4672 2.3342L10.9251 23.3071C4.75418 32.1323 0.957906 43.8844 0.957906 56.832C0.957906 68.3285 3.97059 78.8558 8.95933 87.2494H3.37215C1.51076 87.2494 0 88.7578 0 90.6216C0 92.4851 1.51076 93.9933 3.37215 93.9933H9.12159V87.6713C9.12159 87.6215 9.13464 87.5787 9.13464 87.5289C9.21336 83.8708 12.1897 80.927 15.8651 80.927C17.1001 80.927 18.2422 81.2829 19.2374 81.8618C20.2313 81.2829 21.3747 80.927 22.6096 80.927C23.8432 80.927 24.9867 81.2829 25.9807 81.8618C26.976 81.2829 28.118 80.927 29.3529 80.927C33.0773 80.927 36.0964 83.9469 36.0964 87.6713V93.8451V93.9933H40.9008V93.8451V87.6713C40.9008 83.9469 43.9209 80.927 47.6452 80.927C48.8801 80.927 50.0197 81.2829 51.0176 81.8618C52.0153 81.2829 53.1537 80.927 54.3885 80.927C55.6236 80.927 56.763 81.2829 57.7609 81.8618C58.7588 81.2829 59.8984 80.927 61.1332 80.927C64.8084 80.927 67.785 83.8708 67.8611 87.5289C67.8637 87.5787 67.8765 87.6215 67.8765 87.6713V93.9933H73.6236C75.4876 93.9933 76.9959 92.4851 76.9959 90.6216C76.9961 88.7576 75.4878 87.2492 73.6238 87.2492ZM26.4886 45.1725C21.2986 45.1725 17.0961 40.9673 17.0961 35.7842C17.0961 30.5974 21.2986 26.3895 26.4886 26.3895C31.6707 26.3895 35.8733 30.5974 35.8733 35.7842C35.8733 40.9673 31.6707 45.1725 26.4886 45.1725ZM46.0483 55.3212L39.5515 66.4647C39.331 66.8398 38.9325 67.0703 38.5008 67.0703C38.0664 67.0703 37.6644 66.84 37.4477 66.4647L30.9504 55.3212C30.5251 54.5896 30.6437 53.6683 31.2432 53.0684L37.1834 47.125C37.9077 46.4003 39.0874 46.4003 39.8145 47.125L45.7586 53.0684C46.355 53.6683 46.4763 54.5894 46.0483 55.3212ZM50.5138 45.1725C45.3276 45.1725 41.1225 40.9675 41.1225 35.7842C41.1225 30.5974 45.3274 26.3895 50.5138 26.3895C55.6997 26.3895 59.905 30.5974 59.905 35.7842C59.905 40.9673 55.6999 45.1725 50.5138 45.1725Z" fill="#4A138C"/>
<path d="M27.4567 32.9488C25.3361 32.9488 23.6165 34.6648 23.6165 36.7851C23.6165 38.9089 25.3363 40.6249 27.4567 40.6249C29.5733 40.6249 31.2932 38.9089 31.2932 36.7851C31.2932 34.665 29.5733 32.9488 27.4567 32.9488Z" fill="#4A138C"/>
<path d="M49.5458 32.9488C47.425 32.9488 45.7054 34.6648 45.7054 36.7851C45.7054 38.9089 47.425 40.6249 49.5458 40.6249C51.6663 40.6249 53.3847 38.9089 53.3847 36.7851C53.3847 34.665 51.6663 32.9488 49.5458 32.9488Z" fill="#4A138C"/>
<path d="M29.285 84.3C27.4525 84.3361 25.9807 85.8296 25.9807 87.6711C25.9807 87.6548 25.9807 87.6386 25.9807 87.6223C25.9809 85.7856 24.4921 84.2968 22.6556 84.2968H22.5624C20.7253 84.2968 19.2368 85.7868 19.2372 87.6237C19.2372 87.6396 19.2372 87.6552 19.2372 87.6709C19.2372 85.8294 17.7656 84.3359 15.9332 84.2998C14.0412 84.2624 12.4927 85.8672 12.4927 87.7591V95.1689C12.4927 97.0614 14.0415 98.6659 15.9332 98.6284C17.7658 98.592 19.2372 97.0981 19.2372 95.2574C19.2372 95.2731 19.2372 95.2886 19.2372 95.3042C19.2368 97.1413 20.7253 98.6314 22.5624 98.6314H22.6556C24.4917 98.6314 25.9805 97.1429 25.9807 95.3068C25.9807 95.2902 25.9807 95.2737 25.9807 95.2572C25.9807 97.0979 27.4523 98.592 29.2848 98.6282C31.1767 98.6657 32.7252 97.0608 32.7252 95.1687V87.7589C32.7252 85.8672 31.1767 84.2626 29.285 84.3Z" fill="#4A138C"/>
<path d="M61.0654 84.3C59.2329 84.3361 57.7613 85.8296 57.7613 87.6711C57.7613 87.6548 57.7613 87.6386 57.7613 87.6223C57.7613 85.7856 56.2727 84.2968 54.4362 84.2968H54.3428C52.5057 84.2968 51.0174 85.7868 51.0178 87.6237C51.0178 87.6396 51.0178 87.6552 51.0178 87.6709C51.0178 85.8294 49.5462 84.3359 47.7136 84.2998C45.8216 84.2624 44.2731 85.8672 44.2731 87.7591V95.1689C44.2731 97.0614 45.8218 98.6659 47.7138 98.6284C49.5462 98.592 51.0178 97.0981 51.0178 95.2574C51.0178 95.2731 51.0178 95.2886 51.0178 95.3042C51.0174 97.1413 52.5057 98.6314 54.3428 98.6314H54.4362C56.2723 98.6314 57.7611 97.1429 57.7613 95.3068C57.7613 95.2902 57.7613 95.2737 57.7613 95.2572C57.7613 97.0979 59.2329 98.592 61.0654 98.6282C62.9573 98.6657 64.5058 97.0608 64.5058 95.1687V87.7589C64.5058 85.8672 62.9573 84.2626 61.0654 84.3Z" fill="#4A138C"/>
</svg>
