<svg width="24" height="19" viewBox="0 0 24 19" fill="none" xmlns="http://www.w3.org/2000/svg">
<path d="M19.8 10.6875C19.125 10.6875 18.4988 10.8582 17.9363 11.1365C17.025 9.46289 15.255 8.3125 13.2 8.3125C11.6625 8.3125 10.2825 8.95449 9.3 9.975C8.3175 8.95449 6.9375 8.3125 5.4 8.3125C2.41875 8.3125 0 10.7061 0 13.6562C0 16.6064 2.41875 19 5.4 19H19.8C22.1213 19 24 17.1408 24 14.8438C24 12.5467 22.1213 10.6875 19.8 10.6875ZM15.09 5.89297C14.2538 5.1916 13.185 4.75 12 4.75C10.0613 4.75 8.40375 5.89297 7.64625 7.52578C8.23125 7.7373 8.79375 8.02305 9.3 8.39414C10.425 7.57031 11.775 7.125 13.2 7.125C15.2588 7.125 17.175 8.08613 18.4125 9.68926C18.8663 9.56309 19.3313 9.5 19.8 9.5C21.1313 9.5 22.335 9.99726 23.2763 10.7914C23.7263 10.0678 24 9.22539 24 8.3125C24 5.68887 21.8513 3.5625 19.2 3.5625C17.445 3.5625 15.9263 4.50137 15.09 5.89297ZM5.4 7.125C5.77125 7.125 6.13125 7.1584 6.49125 7.21777C7.395 5.07656 9.51375 3.5625 12 3.5625C12.9825 3.5625 13.95 3.81113 14.8163 4.275C15.165 3.89648 15.5738 3.59219 16.0013 3.31758C15.1425 2.0373 13.6725 1.1875 12 1.1875C10.815 1.1875 9.74625 1.6291 8.91 2.33047C8.07375 0.938867 6.555 0 4.8 0C2.14875 0 0 2.12637 0 4.75C0 6.16758 0.64125 7.42559 1.63875 8.29766C2.7075 7.55918 4.00125 7.125 5.4 7.125Z" fill="black"/>
</svg>
