<svg width="16" height="29" viewBox="0 0 16 29" fill="none" xmlns="http://www.w3.org/2000/svg">
<path d="M14.2222 6.34375C14.2222 2.8377 11.4389 0 8 0C4.56111 0 1.77778 2.8377 1.77778 6.34375V15.7744C0.683333 17.1734 0 18.918 0 20.8438C0 25.3467 3.58333 29 8 29C12.4167 29 16 25.3467 16 20.8438C16 18.918 15.3167 17.1678 14.2222 15.7744V6.34375ZM8 25.375C5.55 25.375 3.55556 23.3416 3.55556 20.8438C3.55556 19.3994 4.23333 18.074 5.33333 17.2301V6.34375C5.33333 4.84277 6.52778 3.625 8 3.625C9.47222 3.625 10.6667 4.84277 10.6667 6.34375V17.2301C11.7667 18.0684 12.4444 19.3994 12.4444 20.8438C12.4444 23.3416 10.45 25.375 8 25.375ZM8.88889 18.2893V6.34375C8.88889 5.84531 8.48889 5.4375 8 5.4375C7.51111 5.4375 7.11111 5.84531 7.11111 6.34375V18.2893C6.07778 18.6631 5.33333 19.66 5.33333 20.8438C5.33333 22.3447 6.52778 23.5625 8 23.5625C9.47222 23.5625 10.6667 22.3447 10.6667 20.8438C10.6667 19.66 9.92222 18.6631 8.88889 18.2893Z" fill="black"/>
</svg>
